<svg xmlns="http://www.w3.org/2000/svg" viewBox="0 0 38 38"><path fill="#fff" d="M0 16C0 8.46 0 4.69 2.34 2.34 4.7 0 8.46 0 16 0h6c7.54 0 11.31 0 13.66 2.34C38 4.7 38 8.46 38 16v2.2c0 7.54 0 11.31-2.34 13.66C33.3 34.2 29.54 34.2 22 34.2h-6c-7.54 0-11.31 0-13.66-2.34C0 29.5 0 25.74 0 18.2V16Z"/><path fill="#fff" d="M9.9 34.5a3.5 3.5 0 0 1 3.5-3.5h11.2a3.5 3.5 0 1 1 0 7H13.4a3.5 3.5 0 0 1-3.5-3.5Z"/><path fill="#000" d="M2 16C2 9.4 2 6.1 4.05 4.05 6.1 2 9.4 2 16 2h6c6.6 0 9.9 0 11.95 2.05C36 6.1 36 9.4 36 16v2.6c0 6.6 0 9.9-2.05 11.95C31.9 32.6 28.6 32.6 22 32.6h-6c-6.6 0-9.9 0-11.95-2.05C2 28.5 2 25.2 2 18.6V16Z"/><path fill="#000" d="M11.4 33.5a2.5 2.5 0 0 1 2.5-2.5h10.2a2.5 2.5 0 0 1 0 5H13.9a2.5 2.5 0 0 1-2.5-2.5Z"/><path fill="#fff" d="M4 16c0-5.66 0-8.49 1.76-10.24C7.5 4 10.34 4 16 4h6c5.66 0 8.49 0 10.24 1.76C34 7.5 34 10.34 34 16v3c0 5.66 0 8.49-1.76 10.24C30.5 31 27.66 31 22 31h-6c-5.66 0-8.49 0-10.24-1.76C4 27.5 4 24.66 4 19v-3Zm9 16.5c0-.83.67-1.5 1.5-1.5h9a1.5 1.5 0 0 1 0 3h-9a1.5 1.5 0 0 1-1.5-1.5Z"/><rect width="24" height="18" x="7" y="10" fill="#000" rx="5"/><rect width="3" height="8" x="13" y="15" fill="#fff" rx="1.5"/><rect width="3" height="8" x="22" y="15" fill="#fff" rx="1.5"/></svg>